<?xml version="1.0" encoding="UTF-8"?>
<svg width="24" height="27" viewBox="0 0 24 27" fill="none" xmlns="http://www.w3.org/2000/svg">
  <path d="M5.13535 17.9998H5.88535V17.6484L5.61528 17.4235L5.13535 17.9998ZM1.09245 10.6179L1.83651 10.5237L1.8365 10.5237L1.09245 10.6179ZM3.50427 2.01104L4.09287 2.47587L4.0929 2.47582L3.50427 2.01104ZM5.54029 1.00011L5.54654 0.250115H5.54029V1.00011ZM18.224 1.00011L18.218 0.250139L18.2178 0.250141L18.224 1.00011ZM20.2596 2.01145L19.6709 2.47611L19.6711 2.47632L20.2596 2.01145ZM22.6715 10.6179L21.9274 10.5237L21.9274 10.5237L22.6715 10.6179ZM18.6269 18.0014L18.1456 17.4263L17.8769 17.6511V18.0014H18.6269ZM5.61528 17.4235C3.52405 15.6821 2.18111 13.2454 1.83651 10.5237L0.348387 10.7121C0.74084 13.8117 2.27333 16.5926 4.65543 18.5762L5.61528 17.4235ZM1.8365 10.5237C1.47128 7.63966 2.27006 4.78402 4.09287 2.47587L2.91568 1.54622C0.846067 4.1669 -0.0679419 7.42457 0.348389 10.7121L1.8365 10.5237ZM4.0929 2.47582C4.32309 2.18429 4.53251 2.01315 4.73718 1.90999C4.93912 1.80821 5.18094 1.75011 5.51036 1.75011V0.250115C4.99389 0.250115 4.512 0.343723 4.06204 0.570519C3.6148 0.795944 3.24412 1.13027 2.91565 1.54627L4.0929 2.47582ZM5.51036 1.75011H5.54029V0.250115H5.51036V1.75011ZM5.53405 1.75009C9.76558 1.78532 13.9979 1.78532 18.2303 1.75009L18.2178 0.250141C13.9938 0.2853 9.76975 0.2853 5.54654 0.250141L5.53405 1.75009ZM18.2301 1.75009C18.5604 1.74741 18.8079 1.80424 19.0158 1.90704C19.2259 2.01087 19.4401 2.18362 19.6709 2.47611L20.8484 1.54679C20.5141 1.12325 20.1348 0.786893 19.6805 0.562345C19.2242 0.336767 18.7364 0.245938 18.218 0.250139L18.2301 1.75009ZM19.6711 2.47632C21.4938 4.78403 22.2926 7.63965 21.9274 10.5237L23.4155 10.7121C23.8319 7.42458 22.9179 4.16689 20.8482 1.54658L19.6711 2.47632ZM21.9274 10.5237C21.5841 13.2356 20.2494 15.6656 18.1456 17.4263L19.1083 18.5766C21.4997 16.5752 23.0242 13.8028 23.4155 10.7121L21.9274 10.5237ZM17.8769 18.0014V25H19.3769V18.0014H17.8769ZM4.38535 17.9998V25H5.88535V17.9998H4.38535ZM6.13535 26.75H17.6269V25.25H6.13535V26.75ZM4.38535 25C4.38535 25.9665 5.16886 26.75 6.13535 26.75V25.25C5.99728 25.25 5.88535 25.1381 5.88535 25H4.38535ZM17.8769 25C17.8769 25.1381 17.765 25.25 17.6269 25.25V26.75C18.5934 26.75 19.3769 25.9665 19.3769 25H17.8769Z" fill="black"/>
  <path fill-rule="evenodd" clip-rule="evenodd" d="M7.56893 5.12906C7.56731 5.76782 8.02565 6.22939 8.664 6.23223C9.30316 6.23546 9.7615 5.77713 9.76919 5.12906C9.77606 4.50082 9.30519 4.03237 8.66683 4.03197C8.01958 4.03156 7.57055 4.4806 7.56893 5.12906M13.4488 5.15329C13.4573 5.73258 13.9909 6.24513 14.5694 6.23016C15.1568 6.21519 15.6616 5.69132 15.6487 5.11041C15.6345 4.48824 15.1653 4.02909 14.5451 4.03031C13.9023 4.03192 13.4391 4.50644 13.4488 5.15329M11.4551 10.8476C12.5134 11.0005 13.4046 10.3334 13.5514 9.27801C13.6882 8.29742 12.9818 7.36457 11.994 7.22015C10.9984 7.07492 10.0595 7.78771 9.91588 8.79742C9.77308 9.80229 10.4491 10.702 11.4551 10.8476M16.4982 13.9393C16.497 12.8758 15.6899 12.0837 14.6228 12.0982C13.6373 12.1116 12.836 12.9263 12.8311 13.919C12.8258 14.972 13.6082 15.7597 14.664 15.7649C15.7288 15.7706 16.4994 15.0032 16.4982 13.9393M6.96403 13.9463C6.96201 15.0021 7.73993 15.7675 8.81235 15.765C9.90499 15.763 10.6247 15.0005 10.6311 13.8378C10.636 12.9248 9.75248 12.0866 8.79778 12.0983C7.74074 12.1113 6.96565 12.8924 6.96403 13.9463M5.60916 10.8502C6.66621 11.0015 7.52706 10.3571 7.68078 9.30006C7.82641 8.29965 7.11241 7.35143 6.1124 7.21793C5.12494 7.08605 4.20179 7.78306 4.05211 8.77377C3.89758 9.79481 4.57841 10.703 5.60916 10.8502M16.9716 10.8495C18.0064 10.9951 18.9118 10.3183 19.0493 9.29688C19.1836 8.30011 18.4676 7.36078 17.4627 7.21556C16.4874 7.07437 15.5622 7.78433 15.4182 8.78474C15.2669 9.83491 15.9194 10.7018 16.9716 10.8495" fill="black"/>
</svg>
