<?xml version="1.0" encoding="UTF-8"?>
<svg width="24" height="27" viewBox="0 0 24 27" fill="none" xmlns="http://www.w3.org/2000/svg">
    <path d="M12.5687 25.7503H10.9776C9.12652 25.7503 7.27546 25.7487 5.424 25.7459C3.16765 25.7427 1.58452 24.2356 1.4844 21.9969C1.38949 19.8795 2.97261 18.0497 5.08919 17.8298H5.094C2.8797 15.986 1.45637 13.4032 1.09152 10.5217C0.704651 7.4668 1.55248 4.44071 3.47923 2.00093C4.03231 1.30048 4.62783 1.00011 5.46525 1.00011H5.49489C9.67999 1.03496 13.8659 1.03496 18.0518 1.00011C18.892 0.993305 19.5076 1.29247 20.067 2.00133C21.9938 4.44071 22.8416 7.4668 22.4548 10.5217C22.0911 13.394 20.6758 15.9692 18.4507 17.8314C20.5905 18.0689 22.1564 19.8915 22.0619 21.9969C21.9618 24.2356 20.3786 25.7427 18.1227 25.7459C16.2712 25.7487 14.4194 25.7503 12.5687 25.7503" stroke="black" stroke-width="1.5"/>
    <path fill-rule="evenodd" clip-rule="evenodd" d="M5.59074 23.3651C6.48904 23.4913 7.2756 22.9038 7.39494 22.0167C7.51148 21.1508 6.88993 20.3354 6.01726 20.2093C5.17023 20.0863 4.36645 20.7035 4.2415 21.5721C4.11014 22.4836 4.67683 23.237 5.59074 23.3651ZM16.8437 23.3651C17.742 23.4913 18.5285 22.9038 18.6479 22.0167C18.7644 21.1508 18.1429 20.3354 17.2702 20.2093C16.4232 20.0863 15.6198 20.7035 15.4944 21.5721C15.3631 22.4836 15.9298 23.237 16.8437 23.3651ZM7.50391 5.08777C7.50231 5.72014 7.95606 6.1771 8.58803 6.1799C9.2208 6.18311 9.67456 5.72935 9.68217 5.08777C9.68897 4.46581 9.22281 4.00205 8.59084 4.00165C7.95005 4.00125 7.50551 4.44579 7.50391 5.08777ZM13.3239 5.11176C13.3323 5.68526 13.8605 6.19267 14.4332 6.17786C15.0147 6.16304 15.5145 5.64441 15.5017 5.06931C15.4877 4.45335 15.0231 3.9988 14.4092 4C13.7728 4.0016 13.3143 4.47138 13.3239 5.11176ZM11.3508 10.7491C12.3985 10.9005 13.2807 10.2401 13.4261 9.19523C13.5615 8.22445 12.8622 7.30092 11.8842 7.15795C10.8986 7.01417 9.96911 7.71983 9.82693 8.71945C9.68556 9.71426 10.3548 10.6049 11.3508 10.7491ZM16.3433 13.8099C16.3421 12.757 15.5432 11.9728 14.4867 11.9873C13.5111 12.0005 12.7177 12.8071 12.7129 13.7899C12.7077 14.8323 13.4823 15.6121 14.5275 15.6173C15.5816 15.6229 16.3445 14.8632 16.3433 13.8099ZM6.90479 13.8168C6.90279 14.8621 7.67293 15.6198 8.73462 15.6174C9.81634 15.6154 10.5288 14.8605 10.5352 13.7095C10.54 12.8056 9.66535 11.9757 8.7202 11.9874C7.67373 12.0002 6.90639 12.7735 6.90479 13.8168ZM5.5631 10.7517C6.60958 10.9015 7.46182 10.2635 7.614 9.21706C7.75818 8.22665 7.05131 7.28791 6.06131 7.15575C5.08372 7.02519 4.1698 7.71523 4.02162 8.69603C3.86864 9.70686 4.54266 10.606 5.5631 10.7517ZM16.8123 10.751C17.8367 10.8952 18.733 10.2251 18.8692 9.21391C19.0022 8.22711 18.2933 7.29717 17.2985 7.1534C16.3329 7.01363 15.417 7.71649 15.2744 8.70689C15.1246 9.74656 15.7706 10.6048 16.8123 10.751Z" fill="black"/>
</svg>
